<svg xmlns="http://www.w3.org/2000/svg" version="1.1" xmlns:xlink="http://www.w3.org/1999/xlink" xmlns:svgjs="http://svgjs.dev/svgjs" width="1000" height="1000"><style>
    #light-icon {
      display: inline;
    }
    #dark-icon {
      display: none;
    }

    @media (prefers-color-scheme: dark) {
      #light-icon {
        display: none;
      }
      #dark-icon {
        display: inline;
      }
    }
  </style><g id="light-icon"><svg xmlns="http://www.w3.org/2000/svg" version="1.1" xmlns:xlink="http://www.w3.org/1999/xlink" xmlns:svgjs="http://svgjs.dev/svgjs" width="1000" height="1000"><g><g transform="matrix(1.953125,0,0,1.953125,0,0)"><svg xmlns="http://www.w3.org/2000/svg" version="1.1" xmlns:xlink="http://www.w3.org/1999/xlink" xmlns:svgjs="http://svgjs.dev/svgjs" width="512" height="512"><svg width="512" height="512" viewBox="0 0 512 512" fill="none" xmlns="http://www.w3.org/2000/svg">
<path d="M475.855 213.444C475.505 212.745 474.981 212.395 474.281 212.395C474.106 212.395 473.931 212.395 473.756 212.395C462.388 215.543 450.671 217.292 438.953 217.117H438.078C426.885 217.117 419.19 215.193 415.342 211.345C414.992 210.996 414.643 210.821 414.118 210.821C413.768 210.821 413.418 210.996 413.244 211.171C407.297 215.193 402.225 217.292 398.028 217.292C395.055 217.292 392.082 215.893 390.333 213.444C389.283 212.22 388.584 210.821 387.884 209.422C387.709 208.897 387.185 208.547 386.66 208.372C386.485 208.372 386.31 208.372 386.31 208.372C385.96 208.372 385.61 208.547 385.261 208.722C382.637 210.646 379.839 212.57 377.041 214.319C368.996 219.391 362.35 222.014 357.278 222.014C353.78 222.189 350.457 220.44 348.533 217.292C345.21 212.045 344.511 204.874 346.26 195.43C346.435 194.906 346.26 194.381 345.91 194.031C338.739 184.237 339.089 164.999 346.784 139.639C347.134 138.765 346.609 137.716 345.56 137.541C345.385 137.541 345.21 137.541 345.035 137.541C344.686 137.541 344.161 137.716 343.811 137.891C337.165 143.837 331.219 146.81 326.322 146.81C323.349 146.81 320.55 145.586 318.627 143.487C313.205 138.065 310.407 128.971 310.582 116.379C310.582 116.029 310.407 115.679 310.232 115.329C306.034 109.733 304.285 101.163 305.16 89.7951C305.16 89.2704 304.985 88.7457 304.635 88.5708C304.285 88.221 303.936 88.0461 303.411 88.0461H303.061C300.788 88.0461 298.514 87.3466 296.765 85.7725C291.168 81.0504 285.047 69.8573 288.37 42.9238C288.545 42.0494 288.02 41.3498 287.146 41C286.971 41 286.796 41 286.621 41C286.097 41 285.572 41.3498 285.222 41.8745C282.599 46.2468 279.975 50.4442 277.177 54.2918C268.258 66.7092 259.863 73.3551 252.167 73.8798C251.293 73.8798 250.593 74.7543 250.593 75.6288C250.768 86.647 248.495 94.5172 243.598 99.2393C241.849 101.163 239.4 102.212 236.777 102.212C233.804 102.038 231.005 101.163 228.382 99.5891C228.207 99.4142 227.857 99.4142 227.507 99.4142C227.158 99.4142 226.983 99.4142 226.808 99.5891C226.283 99.7639 225.933 100.289 225.933 100.813C225.059 107.284 222.785 112.356 219.462 115.679C217.714 117.603 215.265 118.652 212.642 118.652C209.494 118.477 206.52 117.603 203.897 115.854C203.722 115.679 203.372 115.679 203.023 115.679C202.673 115.679 202.323 115.854 201.973 116.029C201.448 116.379 201.099 117.078 201.274 117.778C203.722 134.393 201.623 146.46 195.327 152.756C193.578 154.68 191.13 155.73 188.506 155.73C184.134 155.73 178.887 153.106 172.766 147.859C172.416 147.685 172.067 147.51 171.717 147.51C171.367 147.51 171.017 147.685 170.667 147.859C169.968 148.384 169.793 149.084 169.968 149.783C180.636 180.215 181.161 204.175 171.542 213.794C169.793 215.718 167.344 216.767 164.721 216.767C159.299 216.767 152.479 212.745 144.433 204.7C142.51 202.776 140.586 200.677 138.662 198.578C138.312 198.229 137.788 198.054 137.438 198.054C136.913 198.054 136.388 198.403 136.039 198.753C134.115 201.726 130.792 203.126 126.07 203.126C120.823 202.951 115.751 201.726 110.854 199.803C110.679 199.803 110.504 199.628 110.329 199.628C109.63 199.628 109.105 199.977 108.755 200.502C106.482 204.35 101.235 206.448 93.1899 206.448C89.6921 206.448 86.1942 206.099 82.6963 205.574C65.9066 202.951 50.3412 197.354 38.6234 190.009C38.2736 189.834 38.0987 189.659 37.7489 189.659C36.8745 189.659 36 190.358 36 191.408C36 191.932 36.1749 192.282 36.5247 192.632C43.1706 199.278 49.2918 206.448 54.3637 214.319C61.1845 224.637 63.633 232.507 61.8841 237.929C61.7092 238.629 61.8841 239.328 62.4088 239.853L62.7586 240.028L63.1084 240.378C69.9292 246.674 76.9249 255.418 72.0279 260.665C70.8036 261.889 69.2296 262.939 67.4807 263.638C66.956 263.813 66.6062 264.338 66.4313 264.863C66.2564 265.387 66.6062 266.087 66.956 266.437L67.3058 266.612L68.0054 266.961C76.75 275.181 85.6695 286.2 79.1985 293.195C76.75 295.644 73.7768 297.218 70.6288 298.092C69.9292 298.267 69.4045 298.967 69.4045 299.666C69.4045 300.366 69.7543 301.065 70.4539 301.415L70.9785 301.59L72.0279 301.94C80.4227 305.263 86.1942 308.761 89.1674 312.608C91.6159 315.407 92.3154 319.254 90.9163 322.752C86.7189 333.595 70.4539 341.466 45.4442 345.138C44.5697 345.138 43.6953 346.013 43.6953 346.887C43.6953 347.762 44.3948 348.636 45.4442 348.636C52.4399 349.161 59.2607 350.21 66.0815 351.959C66.6062 352.134 67.6556 352.309 69.0547 352.484C74.4764 353.533 79.7232 355.107 84.97 357.031C98.0869 361.928 104.208 368.574 105.607 374.695C105.607 375.045 105.957 375.395 106.307 375.395C112.428 376.444 118.549 377.843 124.671 379.592C139.886 384.314 147.232 390.436 146.532 397.956C146.532 398.306 146.707 398.656 146.882 398.83C147.057 398.83 147.232 399.005 147.407 399.005C147.582 399.005 147.756 399.005 147.931 398.83C151.079 396.907 154.577 395.158 157.725 393.584L158.95 393.059C171.717 386.938 185.183 382.391 199 379.242C211.417 376.444 221.736 374.695 233.104 375.395C240.45 375.745 243.248 376.794 246.396 380.292C249.369 383.615 250.244 389.911 250.593 394.283C250.593 395.507 250.768 396.907 250.768 398.481C250.943 400.754 251.118 403.203 251.468 406.701C253.217 422.791 258.463 447.276 265.984 470.536C266.334 471.586 266.858 472.11 267.908 471.936C268.782 471.936 271.231 471.761 272.455 471.761C273.679 471.761 280.15 471.936 280.675 471.936C281.724 471.936 282.774 471.586 282.424 470.536C281.2 467.738 280.15 465.115 278.926 462.491C275.603 454.971 272.63 447.451 270.181 439.58C265.984 425.939 263.361 411.773 262.311 397.431C262.136 394.808 261.961 384.664 265.809 380.117C268.782 376.794 271.755 375.745 279.101 375.22C290.469 374.52 300.788 376.269 313.205 379.068C327.021 382.216 340.488 386.938 353.255 392.884L354.48 393.409C357.803 394.983 361.126 396.732 364.274 398.656C364.448 398.83 364.623 398.83 364.798 398.83C364.973 398.83 365.148 398.83 365.323 398.656C365.673 398.481 365.673 398.131 365.673 397.781C364.973 390.261 372.319 384.139 387.359 379.417C393.306 377.668 399.427 376.269 405.723 375.22C406.073 375.22 406.423 374.87 406.423 374.52C407.647 368.399 414.992 363.327 428.109 359.13C435.105 357.031 442.101 355.457 449.446 354.408H449.621C450.146 354.408 450.496 354.408 450.845 354.408C451.72 354.233 452.419 353.358 452.245 352.484C452.07 351.784 451.545 351.26 450.845 351.085C442.451 349.511 434.406 346.363 430.908 341.815C429.858 340.591 429.334 339.192 428.984 337.618C428.809 336.918 428.459 336.394 427.76 336.219C421.463 334.47 416.916 331.672 414.118 327.999C409.046 321.353 413.244 312.608 426.71 302.29C427.585 301.59 428.459 300.891 429.509 300.191C429.858 299.841 430.208 299.491 430.208 298.967C430.208 298.442 430.033 297.917 429.683 297.568C428.984 296.868 428.284 296.168 427.585 295.469C422.513 288.823 426.71 280.078 440.177 269.76C440.527 269.41 440.877 269.06 440.877 268.535C440.877 268.011 440.877 267.661 440.527 267.136L440.177 266.786L440.002 266.612C436.504 262.064 438.428 256.293 445.774 249.472C446.298 248.947 446.473 248.423 446.298 247.723C444.025 240.028 452.769 231.283 460.639 225.337C465.362 221.664 470.259 218.341 475.505 215.368C475.855 215.193 476.205 214.319 475.855 213.444Z" fill="#416717"></path>
</svg></svg></g></g></svg></g><g id="dark-icon"><svg xmlns="http://www.w3.org/2000/svg" version="1.1" xmlns:xlink="http://www.w3.org/1999/xlink" xmlns:svgjs="http://svgjs.dev/svgjs" width="1000" height="1000"><g clip-path="url(#SvgjsClipPath1020)"><rect width="1000" height="1000" fill="#ffffff"></rect><g transform="matrix(1.5625,0,0,1.5625,100,100)"><svg xmlns="http://www.w3.org/2000/svg" version="1.1" xmlns:xlink="http://www.w3.org/1999/xlink" xmlns:svgjs="http://svgjs.dev/svgjs" width="512" height="512"><svg width="512" height="512" viewBox="0 0 512 512" fill="none" xmlns="http://www.w3.org/2000/svg">
<path d="M475.855 213.444C475.505 212.745 474.981 212.395 474.281 212.395C474.106 212.395 473.931 212.395 473.756 212.395C462.388 215.543 450.671 217.292 438.953 217.117H438.078C426.885 217.117 419.19 215.193 415.342 211.345C414.992 210.996 414.643 210.821 414.118 210.821C413.768 210.821 413.418 210.996 413.244 211.171C407.297 215.193 402.225 217.292 398.028 217.292C395.055 217.292 392.082 215.893 390.333 213.444C389.283 212.22 388.584 210.821 387.884 209.422C387.709 208.897 387.185 208.547 386.66 208.372C386.485 208.372 386.31 208.372 386.31 208.372C385.96 208.372 385.61 208.547 385.261 208.722C382.637 210.646 379.839 212.57 377.041 214.319C368.996 219.391 362.35 222.014 357.278 222.014C353.78 222.189 350.457 220.44 348.533 217.292C345.21 212.045 344.511 204.874 346.26 195.43C346.435 194.906 346.26 194.381 345.91 194.031C338.739 184.237 339.089 164.999 346.784 139.639C347.134 138.765 346.609 137.716 345.56 137.541C345.385 137.541 345.21 137.541 345.035 137.541C344.686 137.541 344.161 137.716 343.811 137.891C337.165 143.837 331.219 146.81 326.322 146.81C323.349 146.81 320.55 145.586 318.627 143.487C313.205 138.065 310.407 128.971 310.582 116.379C310.582 116.029 310.407 115.679 310.232 115.329C306.034 109.733 304.285 101.163 305.16 89.7951C305.16 89.2704 304.985 88.7457 304.635 88.5708C304.285 88.221 303.936 88.0461 303.411 88.0461H303.061C300.788 88.0461 298.514 87.3466 296.765 85.7725C291.168 81.0504 285.047 69.8573 288.37 42.9238C288.545 42.0494 288.02 41.3498 287.146 41C286.971 41 286.796 41 286.621 41C286.097 41 285.572 41.3498 285.222 41.8745C282.599 46.2468 279.975 50.4442 277.177 54.2918C268.258 66.7092 259.863 73.3551 252.167 73.8798C251.293 73.8798 250.593 74.7543 250.593 75.6288C250.768 86.647 248.495 94.5172 243.598 99.2393C241.849 101.163 239.4 102.212 236.777 102.212C233.804 102.038 231.005 101.163 228.382 99.5891C228.207 99.4142 227.857 99.4142 227.507 99.4142C227.158 99.4142 226.983 99.4142 226.808 99.5891C226.283 99.7639 225.933 100.289 225.933 100.813C225.059 107.284 222.785 112.356 219.462 115.679C217.714 117.603 215.265 118.652 212.642 118.652C209.494 118.477 206.52 117.603 203.897 115.854C203.722 115.679 203.372 115.679 203.023 115.679C202.673 115.679 202.323 115.854 201.973 116.029C201.448 116.379 201.099 117.078 201.274 117.778C203.722 134.393 201.623 146.46 195.327 152.756C193.578 154.68 191.13 155.73 188.506 155.73C184.134 155.73 178.887 153.106 172.766 147.859C172.416 147.685 172.067 147.51 171.717 147.51C171.367 147.51 171.017 147.685 170.667 147.859C169.968 148.384 169.793 149.084 169.968 149.783C180.636 180.215 181.161 204.175 171.542 213.794C169.793 215.718 167.344 216.767 164.721 216.767C159.299 216.767 152.479 212.745 144.433 204.7C142.51 202.776 140.586 200.677 138.662 198.578C138.312 198.229 137.788 198.054 137.438 198.054C136.913 198.054 136.388 198.403 136.039 198.753C134.115 201.726 130.792 203.126 126.07 203.126C120.823 202.951 115.751 201.726 110.854 199.803C110.679 199.803 110.504 199.628 110.329 199.628C109.63 199.628 109.105 199.977 108.755 200.502C106.482 204.35 101.235 206.448 93.1899 206.448C89.6921 206.448 86.1942 206.099 82.6963 205.574C65.9066 202.951 50.3412 197.354 38.6234 190.009C38.2736 189.834 38.0987 189.659 37.7489 189.659C36.8745 189.659 36 190.358 36 191.408C36 191.932 36.1749 192.282 36.5247 192.632C43.1706 199.278 49.2918 206.448 54.3637 214.319C61.1845 224.637 63.633 232.507 61.8841 237.929C61.7092 238.629 61.8841 239.328 62.4088 239.853L62.7586 240.028L63.1084 240.378C69.9292 246.674 76.9249 255.418 72.0279 260.665C70.8036 261.889 69.2296 262.939 67.4807 263.638C66.956 263.813 66.6062 264.338 66.4313 264.863C66.2564 265.387 66.6062 266.087 66.956 266.437L67.3058 266.612L68.0054 266.961C76.75 275.181 85.6695 286.2 79.1985 293.195C76.75 295.644 73.7768 297.218 70.6288 298.092C69.9292 298.267 69.4045 298.967 69.4045 299.666C69.4045 300.366 69.7543 301.065 70.4539 301.415L70.9785 301.59L72.0279 301.94C80.4227 305.263 86.1942 308.761 89.1674 312.608C91.6159 315.407 92.3154 319.254 90.9163 322.752C86.7189 333.595 70.4539 341.466 45.4442 345.138C44.5697 345.138 43.6953 346.013 43.6953 346.887C43.6953 347.762 44.3948 348.636 45.4442 348.636C52.4399 349.161 59.2607 350.21 66.0815 351.959C66.6062 352.134 67.6556 352.309 69.0547 352.484C74.4764 353.533 79.7232 355.107 84.97 357.031C98.0869 361.928 104.208 368.574 105.607 374.695C105.607 375.045 105.957 375.395 106.307 375.395C112.428 376.444 118.549 377.843 124.671 379.592C139.886 384.314 147.232 390.436 146.532 397.956C146.532 398.306 146.707 398.656 146.882 398.83C147.057 398.83 147.232 399.005 147.407 399.005C147.582 399.005 147.756 399.005 147.931 398.83C151.079 396.907 154.577 395.158 157.725 393.584L158.95 393.059C171.717 386.938 185.183 382.391 199 379.242C211.417 376.444 221.736 374.695 233.104 375.395C240.45 375.745 243.248 376.794 246.396 380.292C249.369 383.615 250.244 389.911 250.593 394.283C250.593 395.507 250.768 396.907 250.768 398.481C250.943 400.754 251.118 403.203 251.468 406.701C253.217 422.791 258.463 447.276 265.984 470.536C266.334 471.586 266.858 472.11 267.908 471.936C268.782 471.936 271.231 471.761 272.455 471.761C273.679 471.761 280.15 471.936 280.675 471.936C281.724 471.936 282.774 471.586 282.424 470.536C281.2 467.738 280.15 465.115 278.926 462.491C275.603 454.971 272.63 447.451 270.181 439.58C265.984 425.939 263.361 411.773 262.311 397.431C262.136 394.808 261.961 384.664 265.809 380.117C268.782 376.794 271.755 375.745 279.101 375.22C290.469 374.52 300.788 376.269 313.205 379.068C327.021 382.216 340.488 386.938 353.255 392.884L354.48 393.409C357.803 394.983 361.126 396.732 364.274 398.656C364.448 398.83 364.623 398.83 364.798 398.83C364.973 398.83 365.148 398.83 365.323 398.656C365.673 398.481 365.673 398.131 365.673 397.781C364.973 390.261 372.319 384.139 387.359 379.417C393.306 377.668 399.427 376.269 405.723 375.22C406.073 375.22 406.423 374.87 406.423 374.52C407.647 368.399 414.992 363.327 428.109 359.13C435.105 357.031 442.101 355.457 449.446 354.408H449.621C450.146 354.408 450.496 354.408 450.845 354.408C451.72 354.233 452.419 353.358 452.245 352.484C452.07 351.784 451.545 351.26 450.845 351.085C442.451 349.511 434.406 346.363 430.908 341.815C429.858 340.591 429.334 339.192 428.984 337.618C428.809 336.918 428.459 336.394 427.76 336.219C421.463 334.47 416.916 331.672 414.118 327.999C409.046 321.353 413.244 312.608 426.71 302.29C427.585 301.59 428.459 300.891 429.509 300.191C429.858 299.841 430.208 299.491 430.208 298.967C430.208 298.442 430.033 297.917 429.683 297.568C428.984 296.868 428.284 296.168 427.585 295.469C422.513 288.823 426.71 280.078 440.177 269.76C440.527 269.41 440.877 269.06 440.877 268.535C440.877 268.011 440.877 267.661 440.527 267.136L440.177 266.786L440.002 266.612C436.504 262.064 438.428 256.293 445.774 249.472C446.298 248.947 446.473 248.423 446.298 247.723C444.025 240.028 452.769 231.283 460.639 225.337C465.362 221.664 470.259 218.341 475.505 215.368C475.855 215.193 476.205 214.319 475.855 213.444Z" fill="#416717"></path>
</svg></svg></g></g><defs><clipPath id="SvgjsClipPath1020"><rect width="1000" height="1000" x="0" y="0" rx="500" ry="500"></rect></clipPath></defs></svg></g></svg>